PathFileType	4	(X/Y/Z)	Run_300 01
DataRate	CameraRate	NumFrames	NumMarkers	Units	OrigDataRate	OrigDataStartFrame	OrigNumFrames
120	120	7	42	mm	120	243	128
Frame#	Time	LASI			RASI			LPSI			RPSI			RTH1			RTH3			LTH1			LTH2			LTH3			RTB1			RTB2			RTB3			LTB1			LTB2			LTB3			RCAL			RTOE			RMT5			LCAL			LTOE			LMT5			LACR			RACR			CLAV			C7			RUA1			RUA2			RUA3			RLEL			RMEL			LUA1			LUA2			LUA3			LLEL			LMEL			RFAsuperior			RFAradius			RFAulna			LFAsuperior			LFAradius			LFAulna			RTH2			
		X1	Y1	Z1	X2	Y2	Z2	X3	Y3	Z3	X4	Y4	Z4	X5	Y5	Z5	X6	Y6	Z6	X7	Y7	Z7	X8	Y8	Z8	X9	Y9	Z9	X10	Y10	Z10	X11	Y11	Z11	X12	Y12	Z12	X13	Y13	Z13	X14	Y14	Z14	X15	Y15	Z15	X16	Y16	Z16	X17	Y17	Z17	X18	Y18	Z18	X19	Y19	Z19	X20	Y20	Z20	X21	Y21	Z21	X22	Y22	Z22	X23	Y23	Z23	X24	Y24	Z24	X25	Y25	Z25	X26	Y26	Z26	X27	Y27	Z27	X28	Y28	Z28	X29	Y29	Z29	X30	Y30	Z30	X31	Y31	Z31	X32	Y32	Z32	X33	Y33	Z33	X34	Y34	Z34	X35	Y35	Z35	X36	Y36	Z36	X37	Y37	Z37	X38	Y38	Z38	X39	Y39	Z39	X40	Y40	Z40	X41	Y41	Z41	X42	Y42	Z42	

229	2.05	1105.588009	983.323294	-433.395277	1115.641397	967.786415	-198.852011	940.136086	1005.819914	-361.288367	945.538045	1003.005799	-263.211142	1068.534236	800.133732	-152.273234	1087.371412	568.106553	-200.618735	1080.565394	813.569702	-495.721152	1186.770573	741.561402	-479.129887	1154.56311	601.121308	-460.850236	1002.325362	403.647002	-248.460454	934.4088400000001	455.771881	-197.076332	820.310673	400.263549	-248.174405	1218.96599	372.401555	-383.844801	1152.346989	288.659478	-427.348352	1146.273142	193.266096	-358.181783	673.03128	504.292531	-276.893437	671.7101280000001	293.085468	-279.908394	638.113492	312.728661	-178.121563	995.122056	90.851821	-346.230129	1202.279869	72.39268300000001	-308.496346	1194.14136	42.254815	-417.898894	1071.007113	1442.810156	-521.2325990000001	1116.369191	1445.217507	-158.924819	1163.17941	1395.263682	-325.241779	1053.593827	1484.758799	-345.841882	1081.629547	1369.780704	-107.930044	1063.174922	1282.913989	-118.788118	982.214156	1306.778981	-92.33202900000001	932.869062	1207.853085	-59.392116	907.8627310000001	1207.634726	-127.335069	1012.913369	1387.128656	-568.970335	943.771762	1358.709281	-527.970762	961.45884	1294.845126	-585.625527	853.043309	1235.517128	-597.607574	838.595638	1237.21802	-524.414673	1009.353888	1146.386995	-58.535323	1114.322449	1008.347828	-112.76894	1056.370448	972.285879	-103.608467	925.067017	1196.564474	-606.677336	1094.777348	1119.72075	-545.481525	1056.718321	1064.183745	-556.035565	1140.839362	661.388687	-182.24606	
230	2.058333	1103.617207	977.555299	-433.126504	1113.241398	961.762491	-198.770363	937.923349	1000.63767	-361.175405	942.839078	997.36887	-263.500739	1069.99759	794.158937	-152.003767	1100.850057	563.74368	-197.21124	1076.264822	807.6716300000001	-495.740936	1179.06614	730.437484	-481.458474	1145.336864	591.708358	-455.981063	1020.68613	401.74557	-246.433888	952.4939010000001	454.203177	-195.248617	838.839486	398.737989	-247.191353	1206.641006	365.916067	-379.873315	1136.722023	284.075999	-423.88012	1126.307219	189.598503	-355.046281	690.811335	502.931963	-277.36541	690.364057	291.713416	-278.42753	657.989998	311.899433	-176.40229	970.9792189999999	91.19332199999999	-343.674621	1177.972309	70.8583	-307.274831	1169.050666	42.661814	-416.791585	1073.053439	1435.598286	-523.490254	1112.688891	1439.20398	-158.830992	1163.285957	1388.848957	-324.469948	1053.690373	1478.831739	-347.323955	1077.140855	1362.967453	-108.722751	1058.1218	1276.716711	-119.529721	976.985913	1300.156218	-94.59144000000001	926.817225	1201.934897	-62.664391	903.036971	1201.246005	-130.523729	1017.635635	1374.667753	-571.128383	946.839131	1345.537596	-533.577829	968.745582	1281.505532	-588.282476	862.2064	1220.541195	-603.009405	845.544812	1221.88073	-530.124521	999.956938	1136.788766	-58.309455	1100.203104	993.949112	-107.992537	1040.253765	960.596186	-99.67215400000001	935.444209	1182.514295	-609.593331	1104.791034	1109.284954	-545.185143	1067.500169	1052.929691	-555.1059320000001	1149.761815	658.747652	-179.711551	
231	2.066667	1101.668873	972.676331	-432.283983	1110.51984	956.361834	-197.975658	935.791633	997.154442	-360.747905	940.072083	993.3905109999999	-263.552899	1071.394734	789.466008	-151.18473	1114.807686	561.407884	-193.63178	1070.928803	802.976173	-495.346757	1169.091564	721.325148	-483.085026	1134.125709	584.124403	-451.092306	1039.865714	401.418991	-244.612487	970.991757	452.851171	-193.403682	858.128088	396.484737	-246.156287	1193.710534	360.101442	-377.887484	1120.187465	279.917985	-421.826821	1105.33688	186.29222	-353.317889	708.260237	499.410387	-277.452127	710.602788	288.236057	-277.299565	678.6997689999999	308.157888	-175.140823	946.384683	91.824521	-342.575911	1153.1248	69.80775	-306.971374	1143.806819	42.347829	-415.32288	1075.182498	1429.100578	-525.493215	1108.749293	1434.14006	-158.932901	1163.147245	1383.636733	-323.608958	1053.722553	1473.879443	-348.695426	1072.452187	1357.639596	-109.643923	1053.135515	1271.920357	-119.771307	971.733147	1294.551452	-97.25340300000001	920.683315	1196.605557	-66.425847	897.683383	1195.655261	-133.663234	1022.96768	1363.643306	-572.80481	950.923263	1333.171945	-538.785635	977.040254	1269.555048	-590.583425	872.647378	1206.049246	-608.3814170000001	853.161204	1206.839519	-535.959733	990.782453	1128.597817	-58.814218	1085.682684	980.8418349999999	-103.2093	1023.875024	950.246853	-95.830443	947.72509	1169.769059	-611.856222	1115.855398	1099.808073	-543.820317	1079.495779	1042.558669	-553.867926	1158.768744	657.912043	-177.536137	
232	2.075	1099.829431	968.6966609999999	-431.107169	1107.643252	951.776444	-196.649628	933.855635	994.9257270000001	-360.157371	937.451999	990.729459	-263.421454	1072.511988	785.949439	-150.083776	1128.956489	561.202728	-190.283343	1064.486642	798.958441	-494.522051	1158.755604	714.792736	-483.569819	1122.816394	578.7914500000001	-448.166694	1059.557733	402.63495	-242.899198	989.6000739999999	451.782609	-191.551772	877.840136	393.638987	-245.061149	1179.398481	354.430652	-377.748735	1102.447303	276.400441	-421.306736	1083.447177	183.50703	-352.969564	725.115762	493.694955	-277.283168	732.623013	282.679016	-276.491164	700.447505	301.739922	-174.269508	921.401058	92.475652	-342.645326	1127.832916	69.138119	-307.466463	1118.484598	41.660979	-414.176314	1077.539539	1423.491836	-527.088883	1104.784484	1430.056021	-159.199641	1162.737708	1379.588648	-322.723632	1053.557704	1469.886773	-349.887976	1067.617848	1353.794649	-110.65117	1048.159462	1268.437909	-119.936401	966.438404	1290.267833	-100.492975	914.357239	1192.36367	-70.63201599999999	892.117735	1191.213974	-136.930337	1028.541196	1354.795711	-573.998261	956.179272	1322.106084	-542.783965	986.1505540000001	1259.50236	-592.577851	884.429377	1192.576089	-613.688442	861.494158	1192.667966	-542.050342	982.114503	1122.397023	-60.22755	1070.90538	969.5801300000001	-98.561791	1007.407034	941.744101	-92.339691	961.6779739999999	1158.928734	-613.440639	1127.85569	1092.009648	-541.187813	1092.701867	1033.803108	-552.0467159999999	1167.756862	659.036239	-175.643915	
233	2.083333	1098.124635	965.720401	-429.911024	1104.878145	948.3973140000001	-195.243695	932.155407	993.544096	-359.578239	935.170158	989.029192	-263.227543	1073.102667	783.716741	-149.077774	1142.930934	563.090952	-187.448584	1057.071754	795.468362	-493.38007	1149.960053	710.532875	-483.150237	1112.684953	575.331015	-448.187472	1079.349992	404.855709	-241.326146	1008.023592	450.954124	-189.781055	897.709475	390.252228	-243.951113	1163.376898	348.887044	-378.774936	1083.832562	273.630673	-421.844137	1061.12613	181.444541	-353.6443	741.287874	485.781708	-276.957312	756.457611	275.196996	-276.007673	723.565741	293.048309	-173.714832	896.398366	93.277801	-343.329456	1102.487658	68.738761	-308.353542	1093.216154	41.019567	-413.902181	1080.236655	1419.048238	-528.211845	1100.982384	1427.009172	-159.468877	1162.118293	1376.592755	-321.796627	1053.173797	1466.895511	-350.84659	1062.680985	1351.184189	-111.69823	1043.106851	1265.970502	-120.615299	961.037096	1287.465893	-104.408064	907.732711	1189.694072	-75.187366	886.878234	1188.145925	-140.683614	1034.004888	1348.347907	-574.832436	962.419163	1312.670042	-545.100179	995.727577	1251.601118	-594.322526	897.367568	1180.710007	-618.804998	870.674027	1179.950687	-548.344154	973.965742	1118.515643	-62.517489	1056.09434	960.730864	-94.19033	991.071367	935.521114	-89.543448	976.595145	1150.249312	-614.374334	1140.512275	1086.703229	-537.363298	1106.957073	1027.467169	-549.4276589999999	1176.598746	662.106097	-173.922011	
234	2.091667	1096.556562	963.794035	-428.969927	1102.51077	946.576582	-194.208256	930.686202	992.857064	-359.124874	933.358214	988.147211	-263.084289	1073.074586	783.016744	-148.404085	1156.376694	566.959401	-185.150792	1049.264727	792.867613	-492.152024	1143.46439	707.737884	-482.330367	1103.696035	572.978863	-450.5731	1098.85785	407.388431	-239.99402	1026.049034	450.250821	-188.213265	917.710247	386.264633	-242.918975	1145.939603	343.866366	-380.157922	1064.768965	271.526278	-422.721776	1038.73506	180.169763	-354.771727	756.870139	475.699805	-276.54737	781.964161	266.05016	-275.830373	748.227486	282.485945	-173.409095	871.653414	94.56694	-344.124659	1077.381307	68.586297	-309.160322	1068.028218	40.679258	-414.514886	1083.297964	1416.06845	-528.88035	1097.415983	1425.097689	-159.572873	1161.405666	1374.599345	-320.735898	1052.689694	1465.0158	-351.585456	1057.681545	1349.594346	-112.736695	1037.933509	1264.362825	-122.070129	955.491734	1286.238033	-108.947766	900.743552	1188.931847	-79.976699	882.31528	1186.624066	-145.148447	1039.289234	1344.085155	-575.487344	969.180062	1305.092623	-546.017485	1005.387525	1245.926925	-595.857678	911.000526	1170.985045	-623.529586	880.730626	1169.216923	-554.528056	966.016903	1116.980832	-65.40365	1041.562323	954.762731	-90.201446	975.18192	931.866998	-87.76302	991.591717	1143.76095	-614.812372	1153.419661	1084.621533	-532.6336700000001	1121.954304	1024.270792	-545.982536	1185.146516	666.967898	-172.282846	
235	2.1	1095.161898	962.818346	-428.519424	1100.722141	946.408926	-193.746333	929.454212	992.939732	-358.834899	932.068001	988.152651	-263.05141	1072.665679	783.989357	-148.008162	1169.016758	572.656052	-183.202375	1042.021048	791.628195	-491.130882	1138.584823	705.630782	-481.485806	1094.79485	571.158667	-453.736045	1117.839463	409.895512	-238.97024	1043.576758	449.6023	-186.933819	938.061764	381.585291	-242.064402	1127.617469	339.781745	-381.279422	1045.31495	269.978995	-423.44773	1016.331907	179.62847	-355.823573	772.1075540000001	463.520981	-276.134942	808.930051	255.554911	-275.862291	774.304163	270.346367	-173.299501	847.22039	96.660402	-344.791059	1052.547881	68.71589299999999	-309.573287	1042.847626	40.644047	-415.557878	1086.674395	1414.775987	-529.164978	1094.034243	1424.434103	-159.449284	1160.713613	1373.693856	-319.436885	1052.275229	1464.343443	-352.184139	1052.637815	1349.06686	-113.716231	1032.624749	1263.826637	-124.01037	949.817154	1286.682583	-113.927507	893.368948	1190.188594	-84.91462799999999	878.338372	1186.791147	-150.263223	1044.614604	1341.70624	-576.078996	975.958352	1299.609565	-546.464096	1014.83721	1242.489807	-597.1836039999999	924.712551	1163.771758	-627.624793	891.42663	1160.901464	-560.118011	957.746605	1117.603516	-68.447034	1027.670852	951.9421599999999	-86.63929	960.186424	930.880871	-87.177072	1005.990212	1139.532574	-615.030744	1166.134496	1086.209657	-527.32622	1137.281669	1024.695491	-541.790061	1193.253231	673.406929	-170.702175	
